<svg xmlns="http://www.w3.org/2000/svg" xmlns:svgjs="http://svgjs.dev/svgjs" xmlns:xlink="http://www.w3.org/1999/xlink" width="1500" height="1500" version="1.1" viewBox="0 0 1500 1500"><rect width="1500" height="1500" fill="#1f0f53"/><g transform="matrix(0.6666666666666666,0,0,0.6666666666666666,249.39393939393938,438.5856950067477)"><svg xmlns="http://www.w3.org/2000/svg" xmlns:xlink="http://www.w3.org/1999/xlink" width="1500" height="935" data-background-color="#1f0f53" preserveAspectRatio="xMidYMid meet" viewBox="0 0 396 247"><g id="tight-bounds" transform="matrix(1,0,0,1,0.2400000000000091,-0.09999999999999432)"><svg width="395.52" height="247.2" viewBox="0 0 395.52 247.2"><g><svg/></g><g><svg width="395.52" height="247.2" viewBox="0 0 395.52 247.2"><g transform="matrix(1,0,0,1,75.54432,95.72072952897739)"><svg width="244.431" height="55.759" viewBox="0 0 244.431 55.759"><g><svg width="244.431" height="55.759" viewBox="0 0 326.586 74.499"><g transform="matrix(1,0,0,1,82.15513811880749,21.035104985775543)"><svg width="244.431" height="32.429" viewBox="0 0 244.431 32.429"><g id="textblocktransform"><svg id="textblock" width="244.431" height="32.429" viewBox="0 0 244.431 32.429"><g><svg width="244.431" height="32.429" viewBox="0 0 244.431 32.429"><g transform="matrix(1,0,0,1,0,0)"><svg width="244.431" height="32.429" data-palette-color="#ffdb99" viewBox="3.3 -33.48 257 34.11"><path id="text-0" fill="#ffdb99" d="M23.68 0L19.63 0 19.63-15.18Q19.63-17.15 19.09-18.57 18.55-20 17.34-20.79 16.13-21.58 14.03-21.58L14.03-21.58Q12.1-21.58 10.7-20.85 9.3-20.13 8.44-18.89 7.58-17.65 7.23-16.07L7.23-16.07 6.33-18.95 7.38-18.95Q7.75-20.6 8.75-21.96 9.75-23.33 11.44-24.14 13.13-24.95 15.55-24.95L15.55-24.95Q18.45-24.95 20.24-23.85 22.03-22.75 22.85-20.69 23.68-18.63 23.68-15.63L23.68-15.63 23.68 0ZM7.35 0L3.3 0 3.3-33.13 7.33-33.13 7.33-25.18 7.2-18.18 7.35-17.85 7.35 0ZM29.65-24.4L33.67-24.4 33.67-9.22Q33.67-7.3 34.21-5.86 34.75-4.42 35.97-3.64 37.2-2.85 39.27-2.85L39.27-2.85Q41.22-2.85 42.62-3.56 44.02-4.28 44.91-5.53 45.8-6.78 46.12-8.35L46.12-8.35 46.85-5.48 45.97-5.48Q45.6-3.83 44.6-2.46 43.6-1.1 41.91-0.29 40.22 0.53 37.75 0.53L37.75 0.53Q34.87 0.53 33.09-0.56 31.3-1.65 30.47-3.74 29.65-5.83 29.65-8.78L29.65-8.78 29.65-24.4ZM45.95-24.4L50-24.4 50 0 45.95 0 46.12-5.85 45.95-6.1 45.95-24.4ZM64.22 0.55L64.22 0.55Q61.27 0.55 59.07-0.09 56.87-0.73 55.42-1.48L55.42-1.48 55.05-5.23Q56.87-4.28 59.06-3.58 61.25-2.88 64.02-2.88L64.02-2.88Q66.84-2.88 68.27-3.78 69.7-4.67 69.7-6.45L69.7-6.45 69.7-6.73Q69.7-7.88 69.16-8.63 68.62-9.38 67.22-9.95 65.82-10.53 63.25-11.1L63.25-11.1Q60.17-11.78 58.4-12.69 56.62-13.6 55.86-14.95 55.09-16.3 55.09-18.25L55.09-18.25 55.09-18.48Q55.09-21.68 57.32-23.33 59.55-24.98 64.02-24.98L64.02-24.98Q66.9-24.98 69.01-24.33 71.12-23.68 72.47-22.88L72.47-22.88 72.84-19.45Q71.22-20.4 69.12-21.03 67.02-21.65 64.4-21.65L64.4-21.65Q62.5-21.65 61.32-21.26 60.15-20.88 59.62-20.16 59.09-19.45 59.09-18.45L59.09-18.45 59.09-18.25Q59.09-17.15 59.62-16.39 60.15-15.63 61.51-15.06 62.87-14.5 65.3-13.98L65.3-13.98Q68.42-13.35 70.26-12.48 72.09-11.6 72.9-10.26 73.7-8.93 73.7-6.83L73.7-6.83 73.7-6.4Q73.7-2.95 71.3-1.2 68.9 0.55 64.22 0.55ZM99.02 0L94.97 0 94.97-15.18Q94.97-17.15 94.43-18.57 93.89-20 92.68-20.79 91.47-21.58 89.37-21.58L89.37-21.58Q87.44-21.58 86.03-20.85 84.62-20.13 83.74-18.89 82.87-17.65 82.52-16.07L82.52-16.07 81.79-18.95 82.67-18.95Q83.07-20.6 84.07-21.96 85.07-23.33 86.75-24.14 88.44-24.95 90.89-24.95L90.89-24.95Q93.79-24.95 95.58-23.85 97.37-22.75 98.19-20.69 99.02-18.63 99.02-15.63L99.02-15.63 99.02 0ZM82.69 0L78.64 0 78.64-24.4 82.69-24.4 82.52-18.55 82.69-18.32 82.69 0ZM123.79 0L119.77 0 119.94-5.93 119.79-6.55 119.79-14.33 119.82-15.75Q119.82-18.73 118.3-20.15 116.79-21.58 113.52-21.58L113.52-21.58Q110.89-21.58 108.7-20.83 106.52-20.08 104.82-19.07L104.82-19.07 105.19-22.53Q106.14-23.1 107.45-23.66 108.77-24.23 110.45-24.6 112.14-24.98 114.17-24.98L114.17-24.98Q116.79-24.98 118.63-24.34 120.47-23.7 121.6-22.5 122.74-21.3 123.27-19.6 123.79-17.9 123.79-15.8L123.79-15.8 123.79 0ZM111.37 0.53L111.37 0.53Q107.74 0.53 105.8-1.24 103.87-3 103.87-6.28L103.87-6.28 103.87-7Q103.87-10.38 105.95-12.04 108.04-13.7 112.59-14.35L112.59-14.35 120.32-15.45 120.54-12.5 113.09-11.43Q110.29-11.03 109.09-10.06 107.89-9.1 107.89-7.23L107.89-7.23 107.89-6.83Q107.89-4.9 109.08-3.88 110.27-2.85 112.64-2.85L112.64-2.85Q114.74-2.85 116.24-3.58 117.74-4.3 118.67-5.53 119.59-6.75 119.92-8.25L119.92-8.25 120.54-5.5 119.77-5.5Q119.42-3.9 118.45-2.53 117.49-1.15 115.77-0.31 114.04 0.53 111.37 0.53ZM134.11 0L130.06 0 130.06-24.4 134.11-24.4 134.11 0ZM132.09-28.4L132.09-28.4Q130.84-28.4 130.23-29.06 129.61-29.73 129.61-30.88L129.61-30.88 129.61-31Q129.61-32.18 130.23-32.83 130.84-33.48 132.09-33.48L132.09-33.48Q133.34-33.48 133.96-32.83 134.59-32.18 134.59-31L134.59-31 134.59-30.88Q134.59-29.7 133.96-29.05 133.34-28.4 132.09-28.4ZM161.19 0L157.14 0 157.14-15.18Q157.14-17.15 156.6-18.57 156.06-20 154.85-20.79 153.64-21.58 151.54-21.58L151.54-21.58Q149.61-21.58 148.2-20.85 146.79-20.13 145.91-18.89 145.04-17.65 144.69-16.07L144.69-16.07 143.96-18.95 144.84-18.95Q145.24-20.6 146.24-21.96 147.24-23.33 148.92-24.14 150.61-24.95 153.06-24.95L153.06-24.95Q155.96-24.95 157.75-23.85 159.54-22.75 160.36-20.69 161.19-18.63 161.19-15.63L161.19-15.63 161.19 0ZM144.86 0L140.81 0 140.81-24.4 144.86-24.4 144.69-18.55 144.86-18.32 144.86 0ZM172.08 0L167.93 0 167.93-31.95 172.08-31.95 172.08 0ZM186.76-13.38L170.28-13.38 170.28-16.85 186.76-16.85 186.76-13.38ZM187.13-28.48L169.13-28.48 169.13-31.95 187.13-31.95 187.13-28.48ZM201.88 0.63L201.88 0.63Q196.63 0.63 193.92-2.21 191.21-5.05 191.21-10.38L191.21-10.38 191.21-14.1Q191.21-19.4 193.93-22.23 196.66-25.05 201.88-25.05L201.88-25.05Q207.13-25.05 209.84-22.23 212.56-19.4 212.56-14.1L212.56-14.1 212.56-10.38Q212.56-5.05 209.84-2.21 207.13 0.63 201.88 0.63ZM201.88-2.68L201.88-2.68Q205.13-2.68 206.82-4.6 208.51-6.53 208.51-10.15L208.51-10.15 208.51-14.33Q208.51-17.93 206.82-19.84 205.13-21.75 201.88-21.75L201.88-21.75Q198.66-21.75 196.96-19.84 195.26-17.93 195.26-14.33L195.26-14.33 195.26-10.15Q195.26-6.53 196.96-4.6 198.66-2.68 201.88-2.68ZM222.33 0L218.3 0 218.3-33.13 222.33-33.13 222.33 0ZM233.23 0L229.18 0 229.18-24.4 233.23-24.4 233.23 0ZM231.2-28.4L231.2-28.4Q229.95-28.4 229.34-29.06 228.73-29.73 228.73-30.88L228.73-30.88 228.73-31Q228.73-32.18 229.34-32.83 229.95-33.48 231.2-33.48L231.2-33.48Q232.45-33.48 233.08-32.83 233.7-32.18 233.7-31L233.7-31 233.7-30.88Q233.7-29.7 233.08-29.05 232.45-28.4 231.2-28.4ZM249.62 0.63L249.62 0.63Q244.37 0.63 241.66-2.21 238.95-5.05 238.95-10.38L238.95-10.38 238.95-14.1Q238.95-19.4 241.67-22.23 244.4-25.05 249.62-25.05L249.62-25.05Q254.87-25.05 257.59-22.23 260.3-19.4 260.3-14.1L260.3-14.1 260.3-10.38Q260.3-5.05 257.59-2.21 254.87 0.63 249.62 0.63ZM249.62-2.68L249.62-2.68Q252.87-2.68 254.56-4.6 256.25-6.53 256.25-10.15L256.25-10.15 256.25-14.33Q256.25-17.93 254.56-19.84 252.87-21.75 249.62-21.75L249.62-21.75Q246.4-21.75 244.7-19.84 243-17.93 243-14.33L243-14.33 243-10.15Q243-6.53 244.7-4.6 246.4-2.68 249.62-2.68Z" class="wordmark-text-0" data-fill-palette-color="primary" opacity="1" transform="matrix(1,0,0,1,0,0)"/></svg></g></svg></g></svg></g></svg></g><g><svg width="74.499" height="74.499" viewBox="0 0 74.499 74.499"><g><svg/></g><g id="icon-0"><svg width="74.499" height="74.499" viewBox="0 0 74.499 74.499"><g><rect width="67.739" height="67.739" x="3.38" y="3.38" fill="#ff5db2" data-fill-palette-color="accent"/><rect width="67.739" height="67.739" x="6.76" y="0" fill="#ff5db2" data-fill-palette-color="accent" opacity=".5"/></g><g transform="matrix(1,0,0,1,9.657328020229002,14.674808816806792)"><svg width="55.185" height="45.15" viewBox="0 0 55.185 45.15"><g><svg xmlns="http://www.w3.org/2000/svg" xmlns:xlink="http://www.w3.org/1999/xlink" id="dxe-0" width="55.185" height="45.15" x="0" y="0" class="icon-dxe-0" data-fill-palette-color="quaternary" enable-background="new 0 0 24 24" version="1.1" viewBox="2 4 22.001 18" xml:space="preserve"><path fill="#1f0f53" d="M23.576 10.769A2 2 0 0 0 22 10V6A2 2 0 0 0 20 4H16A2 2 0 0 0 14 6H4A2 2 0 0 0 2 8V20A2 2 0 0 0 4 22H20C20.927 22 21.699 21.366 21.926 20.511 21.929 20.502 21.939 20.494 21.941 20.486L23.941 12.486A2 2 0 0 0 23.576 10.769M4 8H16V6H20V10H6A2 2 0 0 0 4.06 11.515L4 11.753zM20 20H4L6 12H22z" data-fill-palette-color="quaternary"/></svg></g></svg></g></svg></g></svg></g></svg></g></svg></g><path fill="#ffdb99" stroke="transparent" d="M198.684 89.721L198.684 24.554 0.592 24.554 0.592 222.646 198.684 222.646 198.684 157.479 196.495 157.479 196.495 220.457 2.781 220.457 2.781 26.743 196.495 26.743 196.495 89.721Z" data-fill-palette-color="tertiary"/></svg></g></svg><rect width="395.52" height="247.2" fill="none" stroke="none" visibility="hidden"/></g></svg></g></svg>