<svg xmlns="http://www.w3.org/2000/svg" viewBox="0 0 1440 320"><defs><linearGradient id="gradient" x1="0%" x2="100%" y1="0%" y2="0%"><stop offset="0%" stop-color="#131a5c"/><stop offset="100%" stop-color="#010e23"/></linearGradient></defs><path fill="url(#gradient)" fill-opacity="1" d="M0,224L18.5,208C36.9,192,74,160,111,133.3C147.7,107,185,85,222,80C258.5,75,295,85,332,122.7C369.2,160,406,224,443,240C480,256,517,224,554,197.3C590.8,171,628,149,665,117.3C701.5,85,738,43,775,64C812.3,85,849,171,886,176C923.1,181,960,107,997,117.3C1033.8,128,1071,224,1108,261.3C1144.6,299,1182,277,1218,234.7C1255.4,192,1292,128,1329,112C1366.2,96,1403,128,1422,144L1440,160L1440,320L1421.5,320C1403.1,320,1366,320,1329,320C1292.3,320,1255,320,1218,320C1181.5,320,1145,320,1108,320C1070.8,320,1034,320,997,320C960,320,923,320,886,320C849.2,320,812,320,775,320C738.5,320,702,320,665,320C627.7,320,591,320,554,320C516.9,320,480,320,443,320C406.2,320,369,320,332,320C295.4,320,258,320,222,320C184.6,320,148,320,111,320C73.8,320,37,320,18,320L0,320Z"/></svg>