<svg xmlns="http://www.w3.org/2000/svg" viewBox="0 0 1440 320"><defs><linearGradient id="gradient" x1="0%" x2="100%" y1="0%" y2="0%"><stop offset="0%" stop-color="#131a5c"/><stop offset="100%" stop-color="#010e23"/></linearGradient></defs><path fill="url(#gradient)" fill-opacity="1" d="M0,0L21.8,26.7C43.6,53,87,107,131,112C174.5,117,218,75,262,74.7C305.5,75,349,117,393,128C436.4,139,480,117,524,106.7C567.3,96,611,96,655,122.7C698.2,149,742,203,785,186.7C829.1,171,873,85,916,90.7C960,96,1004,192,1047,213.3C1090.9,235,1135,181,1178,149.3C1221.8,117,1265,107,1309,96C1352.7,85,1396,75,1418,69.3L1440,64L1440,0L1418.2,0C1396.4,0,1353,0,1309,0C1265.5,0,1222,0,1178,0C1134.5,0,1091,0,1047,0C1003.6,0,960,0,916,0C872.7,0,829,0,785,0C741.8,0,698,0,655,0C610.9,0,567,0,524,0C480,0,436,0,393,0C349.1,0,305,0,262,0C218.2,0,175,0,131,0C87.3,0,44,0,22,0L0,0Z"/></svg>