<svg xmlns="http://www.w3.org/2000/svg" version="1.1" xmlns:xlink="http://www.w3.org/1999/xlink" xmlns:svgjs="http://svgjs.dev/svgjs" width="2000" height="1500" viewBox="0 0 2000 1500"><rect width="2000" height="1500" fill="#010536"></rect><g transform="matrix(0.75,0,0,0.75,249.090909090909,667.4063499266064)"><svg viewBox="0 0 396 44" data-background-color="#010536" preserveAspectRatio="xMidYMid meet" height="222" width="2000" xmlns="http://www.w3.org/2000/svg" xmlns:xlink="http://www.w3.org/1999/xlink"><g id="tight-bounds" transform="matrix(1,0,0,1,0.2400000000000091,-0.17344983045452977)"><svg viewBox="0 0 395.52 44.346899660909045" height="44.346899660909045" width="395.52"><g><svg viewBox="0 0 433.9213814024088 48.65257878685191" height="44.346899660909045" width="395.52"><g transform="matrix(1,0,0,1,38.40138140240885,0)"><svg viewBox="0 0 395.52 48.65257878685191" height="48.65257878685191" width="395.52"><g id="textblocktransform"><svg viewBox="0 0 395.52 48.65257878685191" height="48.65257878685191" width="395.52" id="textblock"><g><svg viewBox="0 0 395.52 48.65257878685191" height="48.65257878685191" width="395.52"><g transform="matrix(1,0,0,1,0,0)"><svg width="395.52" viewBox="1.65 -35.85 295.07000000000005 36.300000000000004" height="48.65257878685191" data-palette-color="#fbfbf8"><path d="M25.75-14.95L25.75-6.6Q25.75-4.05 26.45-3.15 27.15-2.25 28.6-2.25L28.6-2.25Q28.75-1.75 28.83-1.2 28.9-0.65 28.9 0.15L28.9 0.15Q27.8 0.05 26.3 0.03 24.8 0 23.2 0L23.2 0Q22.2 0 21 0.03 19.8 0.05 18.75 0.08 17.7 0.1 16.9 0.15L16.9 0.15Q16.9-0.6 16.95-1.2 17-1.8 17.2-2.25L17.2-2.25Q18.9-2.25 19.7-3.2 20.5-4.15 20.5-6.7L20.5-6.7 20.5-13.65Q20.5-17.1 19.28-18.35 18.05-19.6 16.1-19.6L16.1-19.6Q14.8-19.6 13.55-18.75 12.3-17.9 11.48-16.1 10.65-14.3 10.65-11.35L10.65-11.35 10.65-6.6Q10.65-4.1 11.38-3.18 12.1-2.25 13.95-2.25L13.95-2.25Q14.1-1.75 14.18-1.18 14.25-0.6 14.25 0.15L14.25 0.15Q13.5 0.1 12.45 0.08 11.4 0.05 10.25 0.03 9.1 0 8 0L8 0Q7 0 5.8 0.03 4.6 0.05 3.53 0.08 2.45 0.1 1.7 0.15L1.7 0.15Q1.7-0.6 1.75-1.23 1.8-1.85 1.95-2.25L1.95-2.25Q3.9-2.25 4.65-3.18 5.4-4.1 5.4-6.6L5.4-6.6 5.4-15.8 10.65-21Q10.65-20.4 10.58-19.65 10.5-18.9 10.25-18.05L10.25-18.05Q10.45-18.4 10.65-18.8 10.85-19.2 11.2-19.65L11.2-19.65Q12.1-20.8 13.95-21.95 15.8-23.1 18.35-23.1L18.35-23.1Q20.35-23.1 22.03-22.33 23.7-21.55 24.73-19.78 25.75-18 25.75-14.95L25.75-14.95ZM5.4-26.9L5.4-28.45Q5.4-29.65 5.15-30.43 4.9-31.2 4.1-31.6 3.3-32 1.65-32L1.65-32Q1.65-32.6 1.75-33.15 1.85-33.7 2.1-34.15L2.1-34.15Q3.15-34.15 4.65-34.4 6.15-34.65 7.48-35.05 8.8-35.45 9.45-35.85L9.45-35.85Q9.95-35.65 10.3-35.15 10.65-34.65 10.65-33.65L10.65-33.65 10.65-26.9 5.4-26.9ZM5.4-14.9L5.4-28.7 10.65-28.7 10.65-21 5.4-14.9ZM42 0.2L42 0.2Q38.55 0.2 36.62-1.75 34.7-3.7 34.7-8.75L34.7-8.75 34.7-15.8Q34.7-17.7 34.2-18.57 33.7-19.45 31.45-19.5L31.45-19.5Q31.45-20.1 31.52-20.63 31.6-21.15 31.85-21.65L31.85-21.65Q33.7-21.75 35.67-22.25 37.65-22.75 38.8-23.35L38.8-23.35Q39.3-23.15 39.65-22.65 40-22.15 40-21L40-21 40-9.9Q40-6.55 40.85-4.85 41.7-3.15 43.85-3.15L43.85-3.15Q46.2-3.15 47.8-5.2 49.4-7.25 49.4-11.55L49.4-11.55 49.4-16.05Q49.4-17.95 48.77-18.82 48.15-19.7 45.7-19.75L45.7-19.75Q45.7-20.35 45.75-20.88 45.8-21.4 46.1-21.9L46.1-21.9Q48.3-22 50.32-22.43 52.35-22.85 53.5-23.35L53.5-23.35Q54-23.15 54.35-22.65 54.7-22.15 54.7-21L54.7-21 54.7-6.65 50.1-4.8Q49.85-4.1 49.4-3.45 48.95-2.8 48.35-2.25L48.35-2.25Q47.1-1.05 45.6-0.43 44.1 0.2 42 0.2ZM51.2 0.45L51.2 0.45Q50.6 0.2 50.22-0.33 49.85-0.85 49.85-2.45L49.85-2.45Q49.85-3.05 49.95-4.08 50.05-5.1 50.35-6.7L50.35-6.7 54.7-7.25Q54.7-6 54.9-5.2 55.1-4.4 55.75-4.05 56.4-3.7 57.75-3.7L57.75-3.7Q57.75-3.1 57.7-2.4 57.65-1.7 57.4-1.1L57.4-1.1Q56-1.05 54.25-0.65 52.5-0.25 51.2 0.45ZM77.8-21.65L77.8-21.65Q77.75-20.4 77.75-19.05 77.75-17.7 77.95-16.4L77.95-16.4Q77.4-16.1 76.62-15.93 75.84-15.75 75.05-15.75L75.05-15.75Q74.95-17.1 74.27-18.3 73.59-19.5 72.45-20.25 71.3-21 69.7-21L69.7-21Q68.25-21 67.39-20.3 66.55-19.6 66.55-18.45L66.55-18.45Q66.55-17.65 66.89-17.03 67.25-16.4 68.5-15.68 69.75-14.95 72.34-13.9L72.34-13.9Q75.09-12.9 76.65-11.88 78.2-10.85 78.87-9.63 79.55-8.4 79.55-6.6L79.55-6.6Q79.55-4.5 78.32-2.9 77.09-1.3 74.92-0.43 72.75 0.45 70 0.45L70 0.45Q66.95 0.45 65.12-0.03 63.3-0.5 61.5-1.35L61.5-1.35Q61.65-2.2 61.67-3.35 61.7-4.5 61.7-5.63 61.7-6.75 61.59-7.55L61.59-7.55Q62.05-7.9 62.9-8.05 63.75-8.2 64.55-8.2L64.55-8.2Q64.95-5.15 66.42-3.65 67.89-2.15 70.34-2.15L70.34-2.15Q72.2-2.15 73.27-2.98 74.34-3.8 74.34-5.15L74.34-5.15Q74.34-6 73.92-6.65 73.5-7.3 72.4-7.93 71.3-8.55 69.09-9.4L69.09-9.4Q66.5-10.45 64.87-11.4 63.25-12.35 62.5-13.68 61.75-15 61.75-17.05L61.75-17.05Q61.75-18.65 62.55-19.85 63.34-21.05 64.62-21.83 65.89-22.6 67.42-22.98 68.95-23.35 70.34-23.35L70.34-23.35Q72.75-23.35 74.5-22.93 76.25-22.5 77.8-21.65ZM92.24-21L86.94-10.6 86.94-15.8Q86.94-17.1 86.72-17.88 86.49-18.65 85.69-19.05 84.89-19.45 83.24-19.5L83.24-19.5Q83.24-20.1 83.34-20.65 83.44-21.2 83.69-21.65L83.69-21.65Q85.59-21.75 87.74-22.25 89.89-22.75 91.04-23.35L91.04-23.35Q91.54-23.15 91.89-22.65 92.24-22.15 92.24-21L92.24-21ZM107.34-14.95L107.34-6.6Q107.34-4.05 108.02-3.15 108.69-2.25 110.19-2.25L110.19-2.25Q110.34-1.75 110.39-1.2 110.44-0.65 110.44 0.15L110.44 0.15Q109.34 0.05 107.84 0.03 106.34 0 104.79 0L104.79 0Q103.74 0 102.57 0.03 101.39 0.05 100.34 0.08 99.29 0.1 98.49 0.15L98.49 0.15Q98.49-0.6 98.54-1.2 98.59-1.8 98.79-2.25L98.79-2.25Q100.44-2.25 101.24-3.2 102.04-4.15 102.04-6.7L102.04-6.7 102.04-13.65Q102.04-17.1 100.84-18.35 99.64-19.6 97.64-19.6L97.64-19.6Q96.39-19.6 95.14-18.75 93.89-17.9 93.07-16.1 92.24-14.3 92.24-11.35L92.24-11.35 92.24-6.6Q92.24-4.1 92.97-3.18 93.69-2.25 95.49-2.25L95.49-2.25Q95.69-1.75 95.74-1.18 95.79-0.6 95.79 0.15L95.79 0.15Q95.09 0.1 94.04 0.08 92.99 0.05 91.84 0.03 90.69 0 89.59 0L89.59 0Q88.54 0 87.37 0.03 86.19 0.05 85.09 0.08 83.99 0.1 83.24 0.15L83.24 0.15Q83.24-0.6 83.32-1.23 83.39-1.85 83.54-2.25L83.54-2.25Q85.49-2.25 86.22-3.18 86.94-4.1 86.94-6.6L86.94-6.6 86.94-15.8 92.24-21Q92.24-20.4 92.17-19.65 92.09-18.9 91.84-18.05L91.84-18.05Q92.04-18.4 92.24-18.8 92.44-19.2 92.79-19.65L92.79-19.65Q93.69-20.8 95.54-21.95 97.39-23.1 99.94-23.1L99.94-23.1Q101.89-23.1 103.59-22.33 105.29-21.55 106.32-19.78 107.34-18 107.34-14.95L107.34-14.95ZM129.69 0.45L129.69 0.45Q129.09 0.2 128.74-0.48 128.39-1.15 128.39-2.5L128.39-2.5Q128.39-3 128.47-3.68 128.54-4.35 128.69-4.95L128.69-4.95 128.84-4.95Q128.64-4 128.06-3.05 127.49-2.1 126.64-1.35L126.64-1.35Q125.74-0.6 124.39-0.13 123.04 0.35 121.19 0.35L121.19 0.35Q117.99 0.35 116.27-1.07 114.54-2.5 114.54-5.05L114.54-5.05Q114.54-7 115.47-8.38 116.39-9.75 117.87-10.68 119.34-11.6 121.09-12.15 122.84-12.7 124.57-13.03 126.29-13.35 127.69-13.55L127.69-13.55Q127.69-15.45 127.62-16.55 127.54-17.65 127.32-18.32 127.09-19 126.64-19.5L126.64-19.5Q126.04-20.2 125.29-20.55 124.54-20.9 123.64-20.9L123.64-20.9Q122.04-20.9 121.14-19.93 120.24-18.95 119.84-17.63 119.44-16.3 119.34-15.15L119.34-15.15Q118.64-15.15 117.74-15.25 116.84-15.35 116.29-15.55L116.29-15.55Q116.39-16.85 116.37-18.4 116.34-19.95 116.04-21.15L116.04-21.15Q118.14-22.2 120.54-22.78 122.94-23.35 124.99-23.35L124.99-23.35Q127.14-23.35 128.59-22.8 130.04-22.25 130.84-21.35L130.84-21.35Q132.09-20.15 132.54-18.18 132.99-16.2 132.99-12.8L132.99-12.8 132.99-7.65Q132.99-6.2 133.22-5.35 133.44-4.5 134.09-4.13 134.74-3.75 136.04-3.7L136.04-3.7Q136.09-3.1 136.02-2.4 135.94-1.7 135.69-1.1L135.69-1.1Q134.29-1.05 132.64-0.65 130.99-0.25 129.69 0.45ZM122.89-2.8L122.89-2.8Q123.99-2.8 125.09-3.53 126.19-4.25 126.94-5.73 127.69-7.2 127.69-9.6L127.69-9.6 127.69-11.35Q126.39-11.15 125.04-10.85 123.69-10.55 122.57-10 121.44-9.45 120.77-8.55 120.09-7.65 120.09-6.15L120.09-6.15Q120.09-4.4 120.94-3.6 121.79-2.8 122.89-2.8ZM139.64 0.15L139.64 0.15Q139.64-0.45 139.71-1.1 139.79-1.75 139.94-2.25L139.94-2.25Q141.94-2.3 142.64-3.2 143.34-4.1 143.34-6.6L143.34-6.6 143.34-15.95Q143.34-17.15 143.11-17.93 142.89-18.7 142.09-19.1 141.29-19.5 139.59-19.5L139.59-19.5Q139.59-20.1 139.71-20.65 139.84-21.2 140.09-21.65L140.09-21.65Q141.09-21.65 142.59-21.9 144.09-22.15 145.44-22.55 146.79-22.95 147.44-23.35L147.44-23.35Q147.94-23.15 148.29-22.65 148.64-22.15 148.64-21.15L148.64-21.15 148.64-6.6Q148.64-4.1 149.31-3.2 149.99-2.3 151.64-2.25L151.64-2.25Q151.79-1.75 151.84-1.05 151.89-0.35 151.89 0.15L151.89 0.15Q151.09 0.1 150.09 0.08 149.09 0.05 147.99 0.03 146.89 0 145.84 0L145.84 0Q144.74 0 143.61 0.03 142.49 0.05 141.46 0.08 140.44 0.1 139.64 0.15ZM145.54-28.5L145.54-28.5Q144.09-28.5 143.16-29.38 142.24-30.25 142.24-31.55L142.24-31.55Q142.24-33.05 143.24-33.95 144.24-34.85 145.59-34.85L145.59-34.85Q147.14-34.85 148.04-33.95 148.94-33.05 148.94-31.6L148.94-31.6Q148.94-30.35 147.96-29.43 146.99-28.5 145.54-28.5ZM164.44-21L159.14-10.6 159.14-15.8Q159.14-17.1 158.91-17.88 158.69-18.65 157.89-19.05 157.09-19.45 155.44-19.5L155.44-19.5Q155.44-20.1 155.54-20.65 155.64-21.2 155.89-21.65L155.89-21.65Q157.79-21.75 159.94-22.25 162.09-22.75 163.24-23.35L163.24-23.35Q163.74-23.15 164.09-22.65 164.44-22.15 164.44-21L164.44-21ZM179.54-14.95L179.54-6.6Q179.54-4.05 180.21-3.15 180.89-2.25 182.39-2.25L182.39-2.25Q182.54-1.75 182.59-1.2 182.64-0.65 182.64 0.15L182.64 0.15Q181.54 0.05 180.04 0.03 178.54 0 176.99 0L176.99 0Q175.94 0 174.76 0.03 173.59 0.05 172.54 0.08 171.49 0.1 170.69 0.15L170.69 0.15Q170.69-0.6 170.74-1.2 170.79-1.8 170.99-2.25L170.99-2.25Q172.64-2.25 173.44-3.2 174.24-4.15 174.24-6.7L174.24-6.7 174.24-13.65Q174.24-17.1 173.04-18.35 171.84-19.6 169.84-19.6L169.84-19.6Q168.59-19.6 167.34-18.75 166.09-17.9 165.26-16.1 164.44-14.3 164.44-11.35L164.44-11.35 164.44-6.6Q164.44-4.1 165.16-3.18 165.89-2.25 167.69-2.25L167.69-2.25Q167.89-1.75 167.94-1.18 167.99-0.6 167.99 0.15L167.99 0.15Q167.29 0.1 166.24 0.08 165.19 0.05 164.04 0.03 162.89 0 161.79 0L161.79 0Q160.74 0 159.56 0.03 158.39 0.05 157.29 0.08 156.19 0.1 155.44 0.15L155.44 0.15Q155.44-0.6 155.51-1.23 155.59-1.85 155.74-2.25L155.74-2.25Q157.69-2.25 158.41-3.18 159.14-4.1 159.14-6.6L159.14-6.6 159.14-15.8 164.44-21Q164.44-20.4 164.36-19.65 164.29-18.9 164.04-18.05L164.04-18.05Q164.24-18.4 164.44-18.8 164.64-19.2 164.99-19.65L164.99-19.65Q165.89-20.8 167.74-21.95 169.59-23.1 172.14-23.1L172.14-23.1Q174.09-23.1 175.79-22.33 177.49-21.55 178.51-19.78 179.54-18 179.54-14.95L179.54-14.95ZM187.03 0.15L187.03 0.15Q187.03-0.65 187.08-1.25 187.13-1.85 187.28-2.25L187.28-2.25Q188.63-2.35 189.38-2.75 190.13-3.15 190.43-4.1 190.73-5.05 190.73-6.8L190.73-6.8 190.73-27Q190.73-28.8 190.43-29.73 190.13-30.65 189.41-31.05 188.68-31.45 187.33-31.55L187.33-31.55Q187.13-32 187.08-32.6 187.03-33.2 187.03-33.95L187.03-33.95Q187.93-33.9 189.11-33.88 190.28-33.85 191.58-33.83 192.88-33.8 194.08-33.8 195.28-33.8 196.23-33.8L196.23-33.8 196.23-7.75Q196.23-5.6 196.71-4.45 197.18-3.3 198.21-2.85 199.23-2.4 200.88-2.25L200.88-2.25Q201.03-1.8 201.08-1.2 201.13-0.6 201.13 0.15L201.13 0.15Q200.38 0.1 199.26 0.08 198.13 0.05 196.86 0.03 195.58 0 194.33 0L194.33 0Q192.43 0 190.28 0.03 188.13 0.05 187.03 0.15ZM207.43-10.1L207.43-10.1Q206.68-10.1 206.06-10.15 205.43-10.2 204.83-10.4L204.83-10.4Q204.63-12.9 203.51-13.8 202.38-14.7 199.43-14.7L199.43-14.7 195.93-14.7 195.93-17.1 199.43-17.1Q202.43-17.1 203.56-17.9 204.68-18.7 204.73-21.05L204.73-21.05Q205.38-21.25 206.06-21.35 206.73-21.45 207.43-21.45L207.43-21.45Q207.38-20.2 207.36-18.75 207.33-17.3 207.33-15.95L207.33-15.95Q207.33-14.5 207.36-12.93 207.38-11.35 207.43-10.1ZM208.48-25.25L208.48-25.25Q208.33-26.85 207.63-28.28 206.93-29.7 205.26-30.63 203.58-31.55 200.48-31.55L200.48-31.55 194.83-31.55 196.03-33.8Q200.03-33.8 202.81-33.83 205.58-33.85 207.41-33.9 209.23-33.95 210.08-33.95L210.08-33.95Q210.18-32.85 210.33-31.35 210.48-29.85 210.68-28.43 210.88-27 211.13-25.9L211.13-25.9Q210.68-25.55 210.01-25.4 209.33-25.25 208.48-25.25ZM226.48 0.45L226.48 0.45Q222.93 0.45 220.31-1.03 217.68-2.5 216.26-5.15 214.83-7.8 214.83-11.4L214.83-11.4Q214.83-14.9 216.36-17.6 217.88-20.3 220.53-21.83 223.18-23.35 226.53-23.35L226.53-23.35Q230.28-23.35 232.88-21.85 235.48-20.35 236.83-17.7 238.18-15.05 238.18-11.5L238.18-11.5Q238.18-8.05 236.73-5.33 235.28-2.6 232.66-1.07 230.03 0.45 226.48 0.45ZM226.98-2.2L226.98-2.2Q229.78-2.2 231.13-4.58 232.48-6.95 232.48-10.75L232.48-10.75Q232.48-13.85 231.61-16.13 230.73-18.4 229.26-19.58 227.78-20.75 226.03-20.75L226.03-20.75Q223.28-20.75 221.93-18.45 220.58-16.15 220.58-12.55L220.58-12.55Q220.58-9.35 221.36-7 222.13-4.65 223.58-3.43 225.03-2.2 226.98-2.2ZM241.83 0.15L241.83 0.15Q241.83-0.45 241.88-1.1 241.93-1.75 242.08-2.25L242.08-2.25Q244.08-2.3 244.8-3.2 245.53-4.1 245.53-6.6L245.53-6.6 245.53-28.55Q245.53-29.7 245.28-30.45 245.03-31.2 244.23-31.6 243.43-32 241.78-32L241.78-32Q241.78-32.6 241.88-33.15 241.98-33.7 242.23-34.15L242.23-34.15Q243.28-34.15 244.78-34.4 246.28-34.65 247.6-35.05 248.93-35.45 249.58-35.85L249.58-35.85Q250.08-35.65 250.43-35.15 250.78-34.65 250.78-33.65L250.78-33.65 250.78-6.6Q250.78-4.1 251.45-3.2 252.13-2.3 253.78-2.25L253.78-2.25Q253.93-1.75 254-1.05 254.08-0.35 254.08 0.15L254.08 0.15Q253.23 0.1 252.23 0.08 251.23 0.05 250.13 0.03 249.03 0 247.98 0L247.98 0Q246.93 0 245.78 0.03 244.63 0.05 243.63 0.08 242.63 0.1 241.83 0.15ZM257.48 0.15L257.48 0.15Q257.48-0.45 257.55-1.1 257.63-1.75 257.78-2.25L257.78-2.25Q259.78-2.3 260.48-3.2 261.18-4.1 261.18-6.6L261.18-6.6 261.18-15.95Q261.18-17.15 260.95-17.93 260.73-18.7 259.93-19.1 259.13-19.5 257.43-19.5L257.43-19.5Q257.43-20.1 257.55-20.65 257.68-21.2 257.93-21.65L257.93-21.65Q258.93-21.65 260.43-21.9 261.93-22.15 263.28-22.55 264.63-22.95 265.28-23.35L265.28-23.35Q265.78-23.15 266.13-22.65 266.48-22.15 266.48-21.15L266.48-21.15 266.48-6.6Q266.48-4.1 267.15-3.2 267.83-2.3 269.48-2.25L269.48-2.25Q269.63-1.75 269.68-1.05 269.73-0.35 269.73 0.15L269.73 0.15Q268.93 0.1 267.93 0.08 266.93 0.05 265.83 0.03 264.73 0 263.68 0L263.68 0Q262.58 0 261.45 0.03 260.33 0.05 259.3 0.08 258.28 0.1 257.48 0.15ZM263.38-28.5L263.38-28.5Q261.93-28.5 261-29.38 260.08-30.25 260.08-31.55L260.08-31.55Q260.08-33.05 261.08-33.95 262.08-34.85 263.43-34.85L263.43-34.85Q264.98-34.85 265.88-33.95 266.78-33.05 266.78-31.6L266.78-31.6Q266.78-30.35 265.8-29.43 264.83-28.5 263.38-28.5ZM285.02 0.45L285.02 0.45Q281.47 0.45 278.85-1.03 276.22-2.5 274.8-5.15 273.37-7.8 273.37-11.4L273.37-11.4Q273.37-14.9 274.9-17.6 276.42-20.3 279.07-21.83 281.72-23.35 285.07-23.35L285.07-23.35Q288.82-23.35 291.42-21.85 294.02-20.35 295.37-17.7 296.72-15.05 296.72-11.5L296.72-11.5Q296.72-8.05 295.27-5.33 293.82-2.6 291.2-1.07 288.57 0.45 285.02 0.45ZM285.52-2.2L285.52-2.2Q288.32-2.2 289.67-4.58 291.02-6.95 291.02-10.75L291.02-10.75Q291.02-13.85 290.15-16.13 289.27-18.4 287.8-19.58 286.32-20.75 284.57-20.75L284.57-20.75Q281.82-20.75 280.47-18.45 279.12-16.15 279.12-12.55L279.12-12.55Q279.12-9.35 279.9-7 280.67-4.65 282.12-3.43 283.57-2.2 285.52-2.2Z" opacity="1" transform="matrix(1,0,0,1,0,0)" fill="#fbfbf8" class="wordmark-text-0" data-fill-palette-color="primary" id="text-0"></path></svg></g></svg></g></svg></g></svg></g><g transform="matrix(1,0,0,1,0,2.137794311894268)"><svg viewBox="0 0 26.915675212724 44.376990163063375" height="44.376990163063375" width="26.915675212724"><g><svg xmlns="http://www.w3.org/2000/svg" xmlns:xlink="http://www.w3.org/1999/xlink" version="1.1" x="0" y="0" viewBox="33.941554115680816 23.625 32.086445884319176 52.902254248593735" enable-background="new 0 0 100 100" xml:space="preserve" height="44.376990163063375" width="26.915675212724" class="icon-icon-0" data-fill-palette-color="accent" id="icon-0"><path fill-rule="evenodd" clip-rule="evenodd" d="M52.9 35.3C53.2 35.4 53.3 35.4 53.5 35.2 53.6 35.1 53.7 35.1 53.8 35S54 34.9 54.1 34.8 54.3 34.7 54.4 34.6 54.6 34.5 54.7 34.4 55.2 34 55.4 33.9C55.5 33.8 55.7 33.6 55.8 33.6S56 33.4 56.1 33.4 56.3 33.2 56.4 33.2 56.6 33 56.7 33L56.9 32.9 57 32.7H57.2L57.3 32.5H57.5L57.6 32.3C57.8 32.2 57.9 32.2 58.1 32.1 58.2 32.1 58.1 32 58.2 32L58.4 31.9 58.5 31.7H58.7L58.8 31.5H59L59.1 31.3H59.3L59.4 31.1H59.6L59.7 30.9C59.9 30.8 60.1 30.8 60.4 30.6L60.5 30.5C60.6 30.4 60.8 30.5 60.9 30.4L61 30.2H61.2C61.3 30.1 61.3 29.9 61.4 29.9 61.9 29.6 62.4 29.3 62.8 29.2 63.8 29.1 64.4 29.7 65.2 30.3 65.3 30.5 65.1 30.7 65.2 30.9S65.3 31.6 65.2 32V32.2C65.1 32.3 65 32.5 64.9 32.7 64.9 32.8 64.9 32.9 64.8 33 64.8 33.1 64.6 33.1 64.6 33.1 64.4 33.4 64.2 33.6 64 33.9S63.7 34.5 63.5 34.7C63.2 35 62.7 35.1 62.3 35.4 62.2 35.5 62.1 35.7 61.9 35.8 61.8 35.9 61.4 36.1 61.2 36.2 61.1 36.2 61.2 36.3 61.1 36.3S60.9 36.5 60.8 36.5 60.5 36.7 60.3 36.8C60.2 36.9 60.2 37 60.1 37H59.9L59.8 37.2C59.7 37.3 59.6 37.2 59.5 37.3S59.4 37.5 59.3 37.6 59.1 37.6 59 37.7C58.8 37.8 58.7 38.1 58.5 38.2 58.4 38.3 58.4 38.3 58.3 38.3S58.1 38.5 58 38.6H57.8L57.7 38.8H57.5L57.4 39H57.2L57.1 39.2C57 39.3 56.9 39.2 56.8 39.3 56.6 39.4 56.5 39.7 56.3 39.8L55.4 40.7C55.3 40.9 55 40.9 55 41.2 55.1 41.6 55.2 41.7 55.5 41.9 55.6 41.9 55.7 42 55.7 42L56.1 42.4C56.2 42.5 56.3 42.4 56.4 42.5 56.5 42.5 56.5 42.7 56.5 42.7 56.6 42.8 56.7 42.7 56.8 42.8 56.9 42.8 56.9 43 57 43 57.1 43.1 57.3 43.2 57.4 43.3S57.6 43.3 57.7 43.4 57.9 43.8 58.1 44C58.5 44.1 58.9 44.2 59.2 44.5L59.6 44.9C59.7 45 59.7 45.1 59.8 45.1H60C60.1 45.2 60.3 45.3 60.5 45.5 60.6 45.6 60.6 45.7 60.7 45.7H60.9C61 45.8 61.2 46 61.4 46.1 61.5 46.2 61.5 46.3 61.6 46.3H61.8C61.9 46.4 62.1 46.6 62.3 46.7 62.4 46.7 62.5 46.7 62.6 46.8S62.9 47.2 63.1 47.4C63.2 47.4 63.3 47.6 63.3 47.6H63.5V47.7C63.6 47.8 63.7 47.7 63.8 47.8 63.9 47.8 63.9 48 64 48 64.1 48.1 64.2 48 64.3 48.1 64.5 48.2 64.6 48.5 64.8 48.7 64.9 48.8 65.1 48.9 65.2 49S65.2 49.3 65.3 49.4L65.5 49.5V49.7L65.7 49.8C65.8 50 65.7 50.1 65.9 50.2 66 50.6 65.8 50.9 65.8 51.2 65.9 51.2 65.9 51.3 65.9 51.4S66.1 51.7 66 52C65.9 52.4 65.2 53 64.8 53.2 64.7 53.5 64.5 53.7 64.3 53.9 64.1 54 63.8 54 63.6 54.1 63.7 54.1 63 54.4 62.9 54.2 62.8 54.1 62.8 54.1 62.6 54.1H62.4C62.3 54 61.5 54 61.2 53.9 61.2 53.9 61.2 53.8 61.1 53.8S60.9 53.6 60.7 53.6L60.4 53.5 60.1 53.2C60 53.2 60 53.1 59.9 53.1L59.6 53C60 53.3 60 53.1 59.8 53L59.6 52.9 59.3 52.6H59.1L59 52.4H58.8C58.7 52.3 58.7 52.1 58.5 52.1L58.3 52 58 51.7C57.9 51.7 57.9 51.6 57.8 51.6 57.7 51.5 57.5 51.3 57.4 51.3S57.3 51.1 57.2 51.1H57L56.7 50.8C56.6 50.8 56.6 50.7 56.5 50.7L56.4 50.6C56 50.4 55.6 50.5 55.3 50.3 55.2 50.3 55.3 50.2 55.2 50.2 55 50.2 55 49.9 54.8 49.8H54.6C54.5 49.7 54.5 49.6 54.3 49.5 54.2 49.4 54.1 49.4 54 49.3S53.8 49.2 53.7 49.1 53.2 48.7 52.9 48.7C52.7 48.8 52.7 48.9 52.6 49.1S52.5 49.5 52.5 49.7C52.4 50.3 52.5 50.9 52.4 51.7 52.4 52 52.3 52.4 52.3 52.9 52.3 53.2 52.4 53.2 52.3 53.5 52.3 53.6 52.5 54.4 52.3 54.5 52 54.8 52 55.5 52 55.9S52 56.7 51.9 57.1C51.9 57.5 51.7 57.9 51.7 58.2 51.6 59.2 51.7 60.1 51.7 61.1V61.3C51.6 61.9 51.7 63.1 51.7 64 51.7 64.3 51.6 64.5 51.6 64.7 51.6 65 51.7 65.3 51.7 65.6 51.8 66.5 51.8 67.6 51.8 68.6 51.8 69.4 51.8 70.3 51.7 71 51.6 71.3 51.7 71.8 51.6 72.3 51.6 72.6 51.5 72.9 51.4 73.1 51.2 73.8 51.1 74.8 51.1 75.8 51 75.9 50.9 75.9 50.8 76L50.7 76.2C50.6 76.3 50.4 76.2 50.3 76.3 50.1 76.4 49.8 76.6 49.3 76.5 49.1 76.5 48.6 76.1 48.2 76H48L47.7 75.9C47.6 75.7 47.4 75.7 47.2 75.5L46.8 75.1C46.4 74.8 46.2 74.6 46.1 74.3 45.9 73.9 46 73.5 46 73 45.9 71.9 45.9 70.9 45.9 69.6 45.9 69.6 46 69.6 46 69.5 46 69.5 45.9 69.5 45.9 69.4V69.1C45.9 67.8 45.9 66.5 46 65.1 46 64.9 46.1 64.7 46.1 64.5 46.2 62.6 45.9 60.3 46.1 58.3 46.2 57.4 46.2 56.6 46.2 55.7 46.2 53.8 46 51.9 46.2 50.3 46.3 49.4 46.7 48.6 46.2 47.8 45.8 47.6 45.5 48.1 45.2 48.1 45.1 48.1 45 48.3 44.9 48.3S44.8 48.4 44.7 48.4 44.6 48.6 44.5 48.6H44.3V48.7C44.2 48.7 44.1 48.7 44 48.8L43.9 49C43.8 49.1 43.7 49 43.6 49.1L43.5 49.3C43.4 49.4 43.3 49.3 43.2 49.4S43 49.8 42.8 49.9C42.7 50 42.6 49.9 42.5 50L42.4 50.2C42.3 50.3 42.2 50.2 42.1 50.3S41.8 50.7 41.6 50.8C41.5 50.9 41.3 51 41.2 51.1S41.1 51.3 41 51.3H40.8C40.3 51.8 40.3 52 40 52 39.8 52 39.8 52.3 39.6 52.3 39.5 52.3 39.5 52.5 39.4 52.5H39.2V52.6C38.9 52.8 38.6 52.7 38.3 52.8 38.3 52.8 38.3 52.9 38.2 52.9 38 52.9 37.4 53.3 37 53.2 37 53.2 37 53.1 36.9 53.1 36.7 53.1 36.6 53.1 36.4 53 36.3 53 36.1 53 36 52.9L35.6 52.5C35.5 52.4 35.3 52.2 35.2 52 35 52 35 52 35 51.8 35 51.7 34.9 51.7 34.9 51.7 34.8 51.3 34.8 50.2 35.1 49.7 35.1 49.6 35.2 49.7 35.2 49.6S35.5 49.2 35.6 49.1H35.8C35.9 49 35.9 48.9 36.1 48.8S36.7 48.5 36.9 48.3C37.2 48 37.3 47.7 37.7 47.5 37.8 47.5 37.8 47.4 37.9 47.4 38 47.3 38.1 47.3 38.2 47.2S38.4 47.1 38.5 47 38.8 46.9 38.8 46.9C38.9 46.8 38.9 46.6 39.1 46.6 39.2 46.6 39.3 46.4 39.4 46.4S39.6 46.2 39.7 46.2 40 45.9 40.2 45.8C40.4 45.6 40.7 45.5 41 45.3S41.9 44.7 42.4 44.3C42.5 44.3 42.4 44.2 42.5 44.2S42.7 44 42.9 44C43 44 43.1 43.8 43.2 43.8S43.5 43.7 43.6 43.6C44.2 43.2 45.2 42.9 44.7 42 44.7 41.9 44.6 42 44.6 41.9 44.6 41.7 44 41.3 43.8 41.1L43.2 40.5C42.9 40.3 42.6 40.3 42.4 40.1 42.3 39.8 41.9 39.5 41.7 39.2 41.6 39.1 41.5 38.9 41.4 38.7 41.3 38.6 41 38.3 40.8 38.2 40.7 38.1 40.3 37.8 40.1 37.7 40 37.7 39.9 37.7 39.8 37.6L39.7 37.4C39.6 37.3 39.5 37.3 39.3 37.2 39.2 37.1 39.1 37.1 39 37L38.8 36.8C38.6 36.7 38.4 36.5 38.2 36.4L38.1 36.2C38 36.1 37.9 36.1 37.7 36L37.6 35.8C37.5 35.7 37.4 35.7 37.2 35.6L37.1 35.4C37 35.3 36.8 35.3 36.7 35.2L36.3 34.8C36.2 34.7 36.3 34.6 36.2 34.5 36.2 34.5 36 34.5 36 34.4 35.9 34.2 35.8 34.1 35.7 33.9 35.6 33.8 35.4 33.7 35.3 33.6S35.3 33.4 35.2 33.3 34.7 33 34.6 32.8C34.5 32.7 34.6 32.6 34.5 32.5L34.3 32.4C34.2 32.3 34.2 32.2 34.2 32.1L34.1 31.7C33.8 31.5 34 29.6 34.1 29.2 34.1 29.1 34.2 29.2 34.2 29.1S34.4 28.9 34.5 28.8 34.7 28.6 34.9 28.5C35 28.5 35 28.4 35.1 28.4S35.5 28.1 35.7 28.1C35.8 28.1 35.9 27.9 36 27.9S36.3 27.7 36.6 27.7C37.6 27.6 38.3 28.3 39.4 28.1L39.7 28.4C40.2 28.8 40.7 29.4 41.3 29.9 41.6 30.1 41.8 30.4 42.1 30.6 42.2 30.7 42.3 30.7 42.4 30.8 42.4 30.8 42.8 31.2 42.9 31.2L43.1 31.3 43.2 31.5H43.4C43.5 31.6 43.5 31.7 43.6 31.8H43.8C43.9 31.9 43.9 32 44.1 32.1S44.6 32.4 44.8 32.6C44.9 32.7 45 32.7 45.1 32.8L45.2 33H45.4C45.5 33.1 45.5 33.2 45.6 33.3H45.8C45.9 33.4 46.2 33.8 46.5 33.8 46.9 33.3 46.8 32.8 46.9 32.1 47 30.4 46.8 28 47.1 26.4 47.1 26.2 47.2 25.9 47.3 25.7 47.3 25.6 47.3 25.4 47.4 25.3 47.4 25.2 47.6 25.2 47.6 25.1 47.8 24.8 48.1 24.5 48.4 24.3 48.5 24.2 48.6 24 48.7 24 48.8 23.9 49.1 23.9 49.3 23.9 49.4 23.9 49.5 23.7 49.5 23.7H49.8C50.1 23.6 50.3 23.6 50.9 23.7 51.2 23.7 51.4 23.7 51.6 23.8 51.6 23.8 51.6 23.9 51.7 23.9S52.6 24.6 52.6 24.8C52.6 24.8 52.7 24.9 52.7 25 52.8 25.2 52.8 25.3 52.9 25.5 52.9 25.6 53 25.7 53 25.8 53.1 26.1 53.3 27.5 53.2 28.2 53.1 28.7 53.1 29.9 53.1 30.8 52.8 32.1 52.8 33.8 52.9 35.3" fill="#ffff00" data-fill-palette-color="accent"></path></svg></g></svg></g></svg></g><defs></defs></svg><rect width="395.52" height="44.346899660909045" fill="none" stroke="none" visibility="hidden"></rect></g></svg></g></svg>